<?xml version="1.0" standalone="no"?>
<!DOCTYPE svg PUBLIC "-//W3C//DTD SVG 20010904//EN"
 "http://www.w3.org/TR/2001/REC-SVG-20010904/DTD/svg10.dtd">
<svg version="1.0" xmlns="http://www.w3.org/2000/svg"
 width="640.000000pt" height="640.000000pt" viewBox="0 0 640.000000 640.000000"
 preserveAspectRatio="xMidYMid meet">
<metadata>
Created by potrace 1.14, written by Peter Selinger 2001-2017
</metadata>
<g transform="translate(0.000000,640.000000) scale(0.100000,-0.100000)"
fill="#000000" stroke="none">
<path d="M4653 6386 c-136 -44 -237 -154 -287 -311 -9 -27 -50 -232 -90 -455
-93 -502 -185 -969 -238 -1205 -22 -99 -45 -200 -50 -225 -47 -220 -106 -298
-162 -213 -37 55 -57 121 -148 473 -44 173 -115 450 -158 615 -42 165 -112
435 -154 600 -84 325 -118 413 -199 516 -54 67 -138 125 -221 151 -126 40
-292 11 -384 -67 -107 -90 -155 -255 -131 -449 5 -37 49 -206 98 -375 151
-516 252 -889 296 -1096 14 -66 25 -120 25 -121 0 -1 -33 9 -72 23 -217 76
-472 11 -589 -150 -36 -50 -69 -137 -73 -196 -2 -25 -7 -45 -10 -44 -4 1 -25
25 -46 52 -47 60 -112 106 -188 134 -48 18 -78 22 -192 21 -113 0 -145 -4
-194 -22 -153 -57 -244 -153 -275 -293 -14 -62 -25 -226 -24 -344 5 -498 16
-923 28 -1025 2 -19 7 -73 10 -120 4 -47 8 -96 10 -110 2 -14 7 -59 10 -100 4
-41 8 -82 10 -90 2 -8 6 -44 10 -80 4 -36 9 -72 10 -81 2 -9 6 -40 10 -70 3
-30 17 -121 31 -204 13 -82 27 -166 30 -185 3 -19 8 -43 10 -53 3 -10 8 -34
10 -54 7 -59 79 -231 142 -339 258 -446 676 -745 1185 -848 181 -37 180 -37
470 -43 300 -6 418 5 624 58 537 137 888 444 1173 1024 91 184 138 308 179
468 63 243 77 342 75 537 -3 291 -93 505 -280 662 -26 21 -33 37 -39 80 -4 29
-9 62 -11 73 -6 32 -30 216 -38 290 -15 134 -21 266 -21 435 0 267 8 338 73
625 11 50 23 106 26 125 3 19 10 58 15 85 6 28 13 61 15 75 2 14 29 160 60
325 31 165 66 350 77 410 11 61 24 130 29 155 5 25 14 72 20 105 12 69 14 82
29 149 19 79 26 155 24 257 -2 207 -73 347 -215 424 -46 25 -63 28 -167 32
-80 2 -129 -1 -158 -11z"/>
</g>
</svg>
